<svg width="490" height="360" viewBox="0 0 490 360"
     xmlns="http://www.w3.org/2000/svg"
     font-family="'Fira Code','SFMono-Regular',Consolas,monospace">
  <style>
    .key { fill: #58a6ff; font-size: 12.5px; font-weight: 600; }
    .val { fill: #c9d1d9; font-size: 12.5px; }
    .titletext { fill: #8b949e; font-size: 12px; }
    .row { opacity: 0; transform: translateX(-8px);
           animation: slide-in 0.35s ease-out forwards; }
    @keyframes slide-in {
      to { opacity: 1; transform: translateX(0); }
    }
  </style>
  <rect x="0.5" y="0.5" width="489" height="359" rx="8"
        fill="#0d1117" stroke="#30363d" />
  <path d="M0.5,8.5 a8,8 0 0 1 8,-8 h473 a8,8 0 0 1 8,8 v21.5
           h-489 z" fill="#161b22" />
  <line x1="0.5" y1="30" x2="489.5" y2="30" stroke="#30363d" />
  <circle cx="20" cy="15.0" r="5" fill="#ff5f56" />
  <circle cx="38" cy="15.0" r="5" fill="#ffbd2e" />
  <circle cx="56" cy="15.0" r="5" fill="#27c93f" />
  <text x="245.0" y="19.0" text-anchor="middle" class="titletext">swagat@github ~ whoami</text>
  <g class="row" style="animation-delay:0.0s"><text x="18" y="54" class="key">OS</text><text x="114" y="54" class="val">MERN Stack / Full-Stack</text></g>
  <g class="row" style="animation-delay:0.08s"><text x="18" y="80" class="key">Host</text><text x="114" y="80" class="val">swagatgharat (he/him)</text></g>
  <g class="row" style="animation-delay:0.16s"><text x="18" y="106" class="key">Role</text><text x="114" y="106" class="val">Full-Stack MERN Developer</text></g>
  <g class="row" style="animation-delay:0.24s"><text x="18" y="132" class="key">Status</text><text x="114" y="132" class="val">Open to Junior Roles & Freelance</text></g>
  <g class="row" style="animation-delay:0.32s"><text x="18" y="158" class="key">Prev</text><text x="114" y="158" class="val">Web Dev Intern @ Amdox Tech</text></g>
  <g class="row" style="animation-delay:0.4s"><text x="18" y="184" class="key">Stack</text><text x="114" y="184" class="val">React · Next.js · Node.js · Express</text></g>
  <g class="row" style="animation-delay:0.48s"><text x="18" y="210" class="key">Database</text><text x="114" y="210" class="val">MongoDB · Redis</text></g>
  <g class="row" style="animation-delay:0.56s"><text x="18" y="236" class="key">Tools</text><text x="114" y="236" class="val">Tailwind CSS · JWT · BullMQ · Razorpay</text></g>
  <g class="row" style="animation-delay:0.64s"><text x="18" y="262" class="key">Learning</text><text x="114" y="262" class="val">System Design & Advanced Backend</text></g>
  <g class="row" style="animation-delay:0.72s"><text x="18" y="288" class="key">Workflow</text><text x="114" y="288" class="val">Vibe coding · Build fast · Iterate · Ship 🚀</text></g>
  <g class="row" style="animation-delay:0.8s"><text x="18" y="314" class="key">Highlights</text><text x="114" y="314" class="val">Portfolio CMS · 001 Finance · Krix · Obsidian</text></g>
</svg>
